<svg width="25" height="24" viewBox="0 0 25 24" fill="none" xmlns="http://www.w3.org/2000/svg">
    <path d="M21.7798 18.424C21.432 19.2275 21.0203 19.9672 20.5433 20.6472C19.893 21.5743 19.3606 22.216 18.9503 22.5724C18.3143 23.1573 17.6329 23.4568 16.9031 23.4739C16.3792 23.4739 15.7475 23.3248 15.0121 23.0224C14.2742 22.7214 13.5962 22.5724 12.9762 22.5724C12.326 22.5724 11.6286 22.7214 10.8827 23.0224C10.1356 23.3248 9.53383 23.4824 9.0737 23.498C8.37393 23.5278 7.67643 23.2197 6.9802 22.5724C6.53583 22.1848 5.98002 21.5204 5.31417 20.5791C4.59977 19.5739 4.01244 18.4084 3.55231 17.0795C3.05953 15.6442 2.8125 14.2543 2.8125 12.9087C2.8125 11.3673 3.14556 10.0379 3.81269 8.92385C4.33698 8.029 5.03449 7.32312 5.90747 6.80493C6.78045 6.28674 7.7237 6.02267 8.73951 6.00578C9.29532 6.00578 10.0242 6.1777 10.93 6.51559C11.8332 6.85462 12.4131 7.02655 12.6674 7.02655C12.8575 7.02655 13.5018 6.82552 14.594 6.42473C15.6268 6.05305 16.4985 5.89916 17.2126 5.95978C19.1477 6.11595 20.6015 6.87876 21.5683 8.25303C19.8377 9.30163 18.9816 10.7703 18.9986 12.6544C19.0142 14.122 19.5466 15.3432 20.5929 16.3129C21.0671 16.7629 21.5967 17.1107 22.1859 17.3578C22.0581 17.7283 21.9232 18.0832 21.7798 18.424ZM17.3418 0.960131C17.3418 2.11039 16.9216 3.18439 16.0839 4.17847C15.0731 5.36023 13.8505 6.04311 12.5246 5.93536C12.5077 5.79736 12.4979 5.65213 12.4979 5.49951C12.4979 4.39526 12.9786 3.21349 13.8323 2.24724C14.2585 1.75801 14.8005 1.35122 15.4579 1.02671C16.1138 0.707053 16.7342 0.530273 17.3177 0.5C17.3347 0.653772 17.3418 0.807554 17.3418 0.960116V0.960131Z" fill="white"/>
</svg>
