<svg width="18" height="135" viewBox="0 0 18 15" fill="none" xmlns="http://www.w3.org/2000/svg">
<path d="M17.7941 7.47036C17.7941 7.73881 17.6778 7.99831 17.4719 8.19517L11.5661 14.0921C11.3513 14.2979 11.1187 14.3963 10.8681 14.3963C10.3133 14.3963 9.91068 13.9936 9.91068 13.4567C9.91068 13.1793 10.0181 12.9377 10.197 12.7677L12.2014 10.7365L14.8412 8.32045L12.7562 8.44572H1.87515C1.28457 8.44572 0.881899 8.04305 0.881899 7.47036C0.881899 6.88873 1.28457 6.495 1.87515 6.495H12.7562L14.8322 6.62028L12.2014 4.20425L10.197 2.173C10.0181 1.99404 9.91068 1.75244 9.91068 1.47504C9.91068 0.938145 10.3133 0.544423 10.8681 0.544423C11.1187 0.544423 11.3603 0.633905 11.584 0.857611L17.4719 6.74555C17.6778 6.93347 17.7941 7.20191 17.7941 7.47036Z" fill="#FFFFFF" />
</svg>
