<?xml version="1.0" encoding="UTF-8"?>
<!--Generator: Apple Native CoreSVG 326-->
<!DOCTYPE svg
PUBLIC "-//W3C//DTD SVG 1.1//EN"
       "http://www.w3.org/Graphics/SVG/1.1/DTD/svg11.dtd">
<svg version="1.1" xmlns="http://www.w3.org/2000/svg" xmlns:xlink="http://www.w3.org/1999/xlink" viewBox="0 0 24.2578 28.468">
 <g>
  <rect height="28.468" opacity="0" width="24.2578" x="0" y="0"/>
  <path d="M11.9531 26.1813C18.5508 26.1813 23.9062 20.8258 23.9062 14.2281C23.9062 8.38049 19.6992 3.52892 14.2148 2.49767L14.2148 0.833612C14.2148-0.0101376 13.6406-0.221075 12.9844 0.235956L9.25781 2.86096C8.71875 3.24767 8.73047 3.81017 9.25781 4.18517L12.9961 6.81017C13.6406 7.25549 14.2148 7.04455 14.2148 6.21252L14.2148 4.52502C18.6211 5.54455 21.9141 9.47033 21.9141 14.2281C21.9141 19.736 17.4609 24.1891 11.9531 24.1891C6.44531 24.1891 1.99219 19.736 1.99219 14.2281C1.99219 10.8883 3.63281 7.94689 6.11719 6.16564C6.59766 5.80236 6.75 5.25158 6.45703 4.75939C6.16406 4.29064 5.49609 4.15002 4.98047 4.54846C1.95703 6.72814 0 10.2086 0 14.2281C0 20.8258 5.35547 26.1813 11.9531 26.1813Z" fill="white" fill-opacity="0.85"/>
 </g>
</svg>
