<?xml version="1.0" encoding="UTF-8"?>
<!--Generator: Apple Native CoreSVG 326-->
<!DOCTYPE svg
PUBLIC "-//W3C//DTD SVG 1.1//EN"
       "http://www.w3.org/Graphics/SVG/1.1/DTD/svg11.dtd">
<svg version="1.1" xmlns="http://www.w3.org/2000/svg" xmlns:xlink="http://www.w3.org/1999/xlink" viewBox="0 0 23.1562 27.4336">
 <g>
  <rect height="27.4336" opacity="0" width="23.1562" x="0" y="0"/>
  <path d="M22.8047 7.65234L22.8047 25.4062C22.8047 26.625 22.1016 27.4219 20.9648 27.4219L15.0234 27.4219C16.0894 27.4219 16.774 26.7212 16.8551 25.6289L20.3789 25.6289C20.8125 25.6289 21.0234 25.4297 21.0234 24.9961L21.0234 8.05078C21.0234 7.61719 20.8125 7.40625 20.3789 7.40625L16.8633 7.40625L16.8633 5.625L20.9648 5.625C22.1016 5.625 22.8047 6.41016 22.8047 7.65234ZM18.9609 19.418L18.9609 21.1641C18.9609 21.3867 18.8086 21.5273 18.5742 21.5273L16.8633 21.5273L16.8633 19.043L18.5742 19.043C18.8086 19.043 18.9609 19.1836 18.9609 19.418ZM18.9609 15.1641L18.9609 16.9102C18.9609 17.1328 18.8086 17.2852 18.5742 17.2852L16.8633 17.2852L16.8633 14.7891L18.5742 14.7891C18.8086 14.7891 18.9609 14.9414 18.9609 15.1641ZM18.9609 10.9102L18.9609 12.6562C18.9609 12.8789 18.8086 13.0312 18.5742 13.0312L16.8633 13.0313L16.8633 10.5352L18.5742 10.5352C18.8086 10.5352 18.9609 10.6875 18.9609 10.9102Z" fill="white" fill-opacity="0.85"/>
  <path d="M1.83984 27.4219L15.0234 27.4219C16.1602 27.4219 16.8633 26.625 16.8633 25.4062L16.8633 2.01562C16.8633 0.785156 16.1602 0 15.0234 0L1.83984 0C0.703125 0 0 0.785156 0 2.01562L0 25.4062C0 26.625 0.703125 27.4219 1.83984 27.4219ZM2.42578 25.6289C2.00391 25.6289 1.78125 25.4297 1.78125 24.9961L1.78125 2.42578C1.78125 1.99219 2.00391 1.78125 2.42578 1.78125L14.4375 1.78125C14.8711 1.78125 15.082 1.99219 15.082 2.42578L15.082 24.9961C15.082 25.4297 14.8711 25.6289 14.4375 25.6289ZM4.78125 8.23828L7.05469 8.23828C7.34766 8.23828 7.53516 8.05078 7.53516 7.75781L7.53516 5.54297C7.53516 5.26172 7.34766 5.0625 7.05469 5.0625L4.78125 5.0625C4.48828 5.0625 4.3125 5.26172 4.3125 5.54297L4.3125 7.75781C4.3125 8.05078 4.48828 8.23828 4.78125 8.23828ZM9.79688 8.23828L12.0703 8.23828C12.3633 8.23828 12.5508 8.05078 12.5508 7.75781L12.5508 5.54297C12.5508 5.26172 12.3633 5.0625 12.0703 5.0625L9.79688 5.0625C9.51562 5.0625 9.32812 5.26172 9.32812 5.54297L9.32812 7.75781C9.32812 8.05078 9.51562 8.23828 9.79688 8.23828ZM4.78125 12.8789L7.05469 12.8789C7.34766 12.8789 7.53516 12.6914 7.53516 12.3984L7.53516 10.1836C7.53516 9.90234 7.34766 9.70312 7.05469 9.70312L4.78125 9.70312C4.48828 9.70312 4.3125 9.90234 4.3125 10.1836L4.3125 12.3984C4.3125 12.6914 4.48828 12.8789 4.78125 12.8789ZM9.79688 12.8789L12.0703 12.8789C12.3633 12.8789 12.5508 12.6914 12.5508 12.3984L12.5508 10.1836C12.5508 9.90234 12.3633 9.70312 12.0703 9.70312L9.79688 9.70312C9.51562 9.70312 9.32812 9.90234 9.32812 10.1836L9.32812 12.3984C9.32812 12.6914 9.51562 12.8789 9.79688 12.8789ZM4.78125 17.5195L7.05469 17.5195C7.34766 17.5195 7.53516 17.3203 7.53516 17.0391L7.53516 14.8242C7.53516 14.5312 7.34766 14.3438 7.05469 14.3438L4.78125 14.3438C4.48828 14.3438 4.3125 14.5312 4.3125 14.8242L4.3125 17.0391C4.3125 17.3203 4.48828 17.5195 4.78125 17.5195ZM9.79688 17.5195L12.0703 17.5195C12.3633 17.5195 12.5508 17.3203 12.5508 17.0391L12.5508 14.8242C12.5508 14.5312 12.3633 14.3438 12.0703 14.3438L9.79688 14.3438C9.51562 14.3438 9.32812 14.5312 9.32812 14.8242L9.32812 17.0391C9.32812 17.3203 9.51562 17.5195 9.79688 17.5195ZM4.99219 26.4844L6.44531 26.4844L6.44531 22.7461C6.44531 22.5117 6.55078 22.3945 6.80859 22.3945L10.0664 22.3945C10.3125 22.3945 10.4297 22.5117 10.4297 22.7461L10.4297 26.4844L11.8828 26.4844L11.8828 22.3359C11.8828 21.3867 11.4727 20.9297 10.5469 20.9297L6.32812 20.9297C5.40234 20.9297 4.99219 21.3867 4.99219 22.3359Z" fill="white" fill-opacity="0.85"/>
 </g>
</svg>
