<svg width="13" height="13" viewBox="0 0 13 13" fill="none" xmlns="http://www.w3.org/2000/svg">
<path d="M5.0865 12.4296C4.71118 12.4296 4.42969 12.2888 4.17501 11.9738L0.70331 7.69788C0.508948 7.4633 0.428523 7.24213 0.428523 7.00756C0.428523 6.47139 0.823948 6.08267 1.37352 6.08267C1.70193 6.08267 1.9298 6.2033 2.15097 6.47809L5.05969 10.1643L10.7364 1.17001C10.9643 0.808097 11.1921 0.674055 11.5674 0.674055C12.1103 0.674055 12.499 1.05608 12.499 1.58554C12.499 1.79331 12.4387 2.00778 12.2779 2.24905L6.00469 11.9537C5.79022 12.2754 5.48192 12.4296 5.0865 12.4296Z" fill="#FFFFFF"/>
</svg>
