<svg width="9" height="13" viewBox="0 0 9 13" fill="none" xmlns="http://www.w3.org/2000/svg">
<path d="M8.04325 6.37622C8.04325 6.09567 7.9406 5.86301 7.72164 5.64404L2.45273 0.491469C2.27482 0.313558 2.0627 0.231445 1.80952 0.231445C1.29631 0.231445 0.878906 0.635166 0.878906 1.14837C0.878906 1.40155 0.98839 1.63421 1.17314 1.81896L5.85357 6.36937L1.17314 10.9335C0.98839 11.1182 0.878906 11.344 0.878906 11.6041C0.878906 12.1173 1.29631 12.5278 1.80952 12.5278C2.0627 12.5278 2.27482 12.4389 2.45273 12.261L7.72164 7.10839C7.94745 6.88942 8.04325 6.65677 8.04325 6.37622Z" fill="#EBEBF5" fill-opacity="0.3"/>
</svg>
