<svg width="12" height="12" viewBox="0 0 12 12" fill="none" xmlns="http://www.w3.org/2000/svg">
<path d="M0.757068 11.0817C0.421962 10.7533 0.435366 10.1836 0.750366 9.86864L4.74483 5.86748L0.750366 1.87302C0.435366 1.55802 0.428664 0.995037 0.757068 0.659931C1.08547 0.324825 1.65515 0.33823 1.97685 0.653229L5.97132 4.64769L9.95908 0.653229C10.2875 0.324825 10.8438 0.331527 11.1789 0.659931C11.514 0.995037 11.514 1.55131 11.1856 1.87972L7.19781 5.86748L11.1856 9.86194C11.514 10.1903 11.5073 10.7466 11.1789 11.0817C10.8505 11.4168 10.2875 11.4168 9.95908 11.0884L5.97132 7.09397L1.97685 11.0884C1.65515 11.4034 1.09217 11.4168 0.757068 11.0817Z" fill="#FFFFFF"/>
</svg>
