<svg width="13" height="16" viewBox="0 0 13 16" fill="none" xmlns="http://www.w3.org/2000/svg">
<path d="M2.17122 5.27324V5.19951H1.95675C1.46079 5.19951 1.09888 5.13249 0.830791 4.87111C0.562706 4.60973 0.509089 4.24781 0.509089 3.75186V1.85516C0.509089 1.3592 0.562706 1.01069 0.830791 0.735902C1.09888 0.474519 1.46079 0.4142 1.95005 0.4142H3.84675C4.3427 0.4142 4.70462 0.474519 4.9727 0.735902C5.23408 1.00399 5.2944 1.3592 5.2944 1.85516V3.75186C5.2944 4.24781 5.23408 4.60973 4.9727 4.87111C4.70462 5.13249 4.3427 5.19951 3.84675 5.19951H3.62558V5.27324C3.62558 6.03728 4.16845 6.58015 5.20057 6.85494L8.59855 7.74632C10.3076 8.18866 11.2057 9.21408 11.2057 10.7154V10.7824H11.4134C11.9027 10.7824 12.2646 10.8427 12.5327 11.1108C12.8008 11.3722 12.8544 11.7341 12.8544 12.23V14.12C12.8544 14.616 12.8008 14.9779 12.5327 15.2393C12.2646 15.5074 11.9027 15.5677 11.4134 15.5677H9.51674C9.02078 15.5677 8.65887 15.5074 8.39078 15.2393C8.1227 14.9779 8.06908 14.616 8.06908 14.12V12.2233C8.06908 11.7341 8.1227 11.3789 8.39078 11.1108C8.65887 10.8427 9.02078 10.7824 9.51004 10.7824H9.75131V10.7154C9.75131 9.95132 9.21514 9.40845 8.16961 9.13366L4.77834 8.24228C3.0693 7.79994 2.17122 6.77451 2.17122 5.27324Z" fill="#FFFFFF"/>
</svg>
