<svg width="45" height="54" viewBox="0 0 45 54" fill="none" xmlns="http://www.w3.org/2000/svg">
<rect width="44.64" height="43.92" rx="21.96" fill="#7C112F"/>
<path d="M17.0424 14.7926C17.0424 11.7759 19.4743 9.31746 22.5042 9.31746C25.5341 9.31746 27.9527 11.7759 27.9527 14.7926C27.9527 17.2776 26.2783 19.3906 23.9926 20.0417V32.6531C23.9926 36.0551 23.0624 38.3408 22.5042 38.3408C21.9328 38.3408 20.9893 36.0418 20.9893 32.6531V20.0417C18.7035 19.3773 17.0424 17.2776 17.0424 14.7926ZM20.9494 15.0982C21.9726 15.0982 22.8099 14.2344 22.8099 13.2244C22.8099 12.2145 21.9726 11.364 20.9494 11.364C19.966 11.364 19.0889 12.2145 19.0889 13.2244C19.0889 14.2344 19.966 15.0982 20.9494 15.0982Z" fill="#FDB4C7"/>
<path d="M22.7002 53.4055L21.6761 50.6732C20.572 47.7275 18.8625 45.046 16.6578 42.8019L16.4648 42.6055H28.9356L28.7382 42.8065C26.5382 45.0477 24.8316 47.7245 23.7284 50.665L22.7002 53.4055Z" fill="#7C112F"/>
</svg>
