<svg width="24" height="23" viewBox="0 0 24 23" fill="none" xmlns="http://www.w3.org/2000/svg">
<path opacity="0.5" d="M3.76132 22.7765C1.27781 22.7765 0.0301177 21.5525 0.0301177 19.0928V4.58388C0.0301177 2.12413 1.27781 0.900204 3.76132 0.900204H19.9932C22.4768 0.900204 23.7126 2.13602 23.7126 4.58388V19.0928C23.7126 21.5407 22.4768 22.7765 19.9932 22.7765H3.76132ZM3.58308 20.8633H20.1477C21.2053 20.8633 21.7994 20.3048 21.7994 19.1997V7.99424C21.7994 6.90102 21.2053 6.33065 20.1477 6.33065H3.58308C2.52551 6.33065 1.94325 6.90102 1.94325 7.99424V19.1997C1.94325 20.3048 2.52551 20.8633 3.58308 20.8633Z" fill="white"/>
</svg>
